<svg width="1200" height="900" viewBox="0 0 1200 900" fill="none" xmlns="http://www.w3.org/2000/svg">
  <rect width="1200" height="900" rx="48" fill="#F9F0E5"/>
  <circle cx="1020" cy="190" r="160" fill="#F8D7BF"/>
  <circle cx="170" cy="770" r="180" fill="#FCE4D0"/>
  <rect x="110" y="150" width="980" height="600" rx="42" fill="#FFF9F3"/>
  <rect x="160" y="210" width="280" height="28" rx="14" fill="#D96F32" fill-opacity="0.14"/>
  <rect x="160" y="258" width="420" height="90" rx="26" fill="#D96F32" fill-opacity="0.1"/>
  <rect x="160" y="374" width="330" height="18" rx="9" fill="#9A755F" fill-opacity="0.32"/>
  <rect x="160" y="406" width="260" height="18" rx="9" fill="#9A755F" fill-opacity="0.24"/>
  <rect x="160" y="468" width="240" height="64" rx="32" fill="#D96F32"/>
  <rect x="610" y="310" width="350" height="190" rx="28" fill="#D96F32"/>
  <rect x="648" y="262" width="270" height="70" rx="26" fill="#F3B88E"/>
  <circle cx="684" cy="544" r="46" fill="#3B332F"/>
  <circle cx="886" cy="544" r="46" fill="#3B332F"/>
  <rect x="714" y="352" width="138" height="24" rx="12" fill="#FFE7D6"/>
  <rect x="676" y="396" width="212" height="18" rx="9" fill="#FFE7D6" fill-opacity="0.78"/>
  <rect x="696" y="428" width="174" height="18" rx="9" fill="#FFE7D6" fill-opacity="0.6"/>
  <path d="M732 260C732 216 768 180 812 180C856 180 892 216 892 260V278H732V260Z" fill="#A74D1E"/>
  <rect x="110" y="150" width="980" height="600" rx="42" stroke="#D96F32" stroke-opacity="0.08" stroke-width="4"/>
</svg>
