<svg width="1200" height="900" viewBox="0 0 1200 900" fill="none" xmlns="http://www.w3.org/2000/svg">
  <rect width="1200" height="900" rx="48" fill="#EAF5F7"/>
  <circle cx="970" cy="160" r="150" fill="#CDE8EE"/>
  <circle cx="220" cy="740" r="180" fill="#D8EEF2"/>
  <rect x="110" y="135" width="980" height="630" rx="40" fill="#FFFFFF"/>
  <rect x="160" y="190" width="340" height="28" rx="14" fill="#0E6F8A" fill-opacity="0.14"/>
  <rect x="160" y="240" width="440" height="84" rx="24" fill="#0E6F8A" fill-opacity="0.1"/>
  <rect x="160" y="348" width="300" height="18" rx="9" fill="#7E9AA3" fill-opacity="0.34"/>
  <rect x="160" y="380" width="250" height="18" rx="9" fill="#7E9AA3" fill-opacity="0.24"/>
  <rect x="160" y="442" width="220" height="64" rx="32" fill="#0E6F8A"/>
  <rect x="640" y="225" width="320" height="420" rx="32" fill="#F6FBFC"/>
  <rect x="685" y="268" width="228" height="140" rx="24" fill="#D9EEF3"/>
  <path d="M770 250C770 218 796 192 828 192C860 192 886 218 886 250V268H770V250Z" fill="#0A4F63"/>
  <rect x="736" y="453" width="128" height="24" rx="12" fill="#0E6F8A" fill-opacity="0.18"/>
  <rect x="704" y="496" width="190" height="18" rx="9" fill="#7E9AA3" fill-opacity="0.28"/>
  <rect x="724" y="529" width="150" height="18" rx="9" fill="#7E9AA3" fill-opacity="0.22"/>
  <circle cx="1010" cy="650" r="74" fill="#0E6F8A"/>
  <path d="M976 648H1044" stroke="white" stroke-width="18" stroke-linecap="round"/>
  <path d="M1010 614V682" stroke="white" stroke-width="18" stroke-linecap="round"/>
  <rect x="110" y="135" width="980" height="630" rx="40" stroke="#0E6F8A" stroke-opacity="0.08" stroke-width="4"/>
</svg>
